<svg width="42" height="42" viewBox="0 0 42 42" fill="none" xmlns="http://www.w3.org/2000/svg">
<g clip-path="url(#clip0_3_97)">
<path d="M25.8809 5.71932C26.2207 5.71932 26.4961 5.44385 26.4961 5.10408V3.24615C26.4961 2.90638 26.2207 2.63092 25.8809 2.63092C25.541 2.63092 25.2656 2.90638 25.2656 3.24615V5.10408C25.2656 5.44385 25.541 5.71932 25.8809 5.71932ZM22.8536 5.8335C23.0222 6.13259 23.4002 6.23144 23.6917 6.06705C23.9877 5.90011 24.0923 5.5249 23.9253 5.22893L23.1451 3.84589C22.9783 3.55 22.6029 3.44549 22.307 3.61234C22.011 3.77928 21.9064 4.15449 22.0734 4.45046L22.8536 5.8335ZM28.0701 6.06705C28.3609 6.23103 28.7396 6.13259 28.9082 5.8335L29.6884 4.45046C29.8554 4.15449 29.7508 3.77928 29.4548 3.61234C29.1591 3.44541 28.7836 3.55 28.6167 3.84589L27.8365 5.22893C27.6695 5.5249 27.7741 5.90011 28.0701 6.06705ZM39.8968 22.9667L34.9093 21.3048C34.6266 21.2105 34.3991 20.9978 34.2855 20.721L31.5063 13.9594C31.0307 12.8012 29.9138 12.0529 28.6608 12.0529H28.6289V10.9453C28.6289 9.43 27.3961 8.19723 25.8809 8.19723C24.3656 8.19723 23.1328 9.43 23.1328 10.9453V12.0529H18.9524C18.9514 12.0529 18.9503 12.0527 18.9492 12.0527C18.9482 12.0527 18.9471 12.0529 18.946 12.0529H3.07617C1.37993 12.0529 0 13.4328 0 15.129V19.1894C0 19.5292 0.275379 19.8047 0.615234 19.8047C0.95509 19.8047 1.23047 19.5292 1.23047 19.1894V15.129C1.23047 14.1113 2.05849 13.2833 3.07617 13.2833H18.334V26.5722H1.23047V22.0605C1.23047 21.7207 0.95509 21.4453 0.615234 21.4453C0.275379 21.4453 0 21.7207 0 22.0605V31.7404C0 33.4366 1.37993 34.8165 3.07617 34.8165H4.65216C4.95756 37.3769 7.1409 39.3691 9.78223 39.3691C12.4236 39.3691 14.6069 37.3769 14.9123 34.8165H26.1238C26.4292 37.3769 28.6126 39.3691 31.2539 39.3691C33.8952 39.3691 36.0786 37.3769 36.384 34.8165H38.9238C40.6201 34.8165 42 33.4366 42 31.7404V25.885C42 24.5584 41.1548 23.3856 39.8968 22.9667ZM9.78223 38.1386C7.61102 38.1386 5.84473 36.3723 5.84473 34.2011C5.84473 32.03 7.61102 30.2636 9.78223 30.2636C11.9534 30.2636 13.7197 32.03 13.7197 34.2011C13.7197 36.3723 11.9534 38.1386 9.78223 38.1386ZM18.334 33.5861H14.9123C14.6071 31.0255 12.4236 29.0332 9.78223 29.0332C7.1409 29.0332 4.95739 31.0255 4.65216 33.5861H3.07617C2.05849 33.5861 1.23047 32.7581 1.23047 31.7404V27.8027H18.334V33.5861ZM24.3633 10.9453C24.3633 10.1085 25.0441 9.4277 25.8809 9.4277C26.7177 9.4277 27.3984 10.1085 27.3984 10.9453V12.0529H24.3633V10.9453ZM31.2539 38.1386C29.0827 38.1386 27.3164 36.3723 27.3164 34.2011C27.3164 32.03 29.0827 30.2636 31.2539 30.2636C33.4251 30.2636 35.1914 32.03 35.1914 34.2011C35.1914 36.3723 33.4251 38.1386 31.2539 38.1386ZM40.7695 26.5722H31.3854C31.0455 26.5722 30.7702 26.8477 30.7702 27.1875C30.7702 27.5272 31.0455 27.8027 31.3854 27.8027H40.7695V31.7404C40.7695 32.7581 39.9415 33.5861 38.9238 33.5861H36.384C36.0787 31.0255 33.8952 29.0332 31.2539 29.0332C28.6126 29.0332 26.4291 31.0255 26.1238 33.5861H19.5645V27.8027H28.5143C28.8542 27.8027 29.1295 27.5272 29.1295 27.1875C29.1295 26.8477 28.8542 26.5722 28.5143 26.5722H19.5645V13.2833H28.6609C29.4127 13.2833 30.0829 13.7321 30.3682 14.4269L33.1474 21.1888C33.3973 21.7969 33.8977 22.2645 34.5203 22.4721L39.5079 24.134C40.2625 24.3854 40.7695 25.089 40.7695 25.8849V26.5722ZM29.2211 15.1562C29.064 14.7659 28.6906 14.5136 28.2699 14.5136H21.8203C21.2549 14.5136 20.7949 14.9736 20.7949 15.539V21.2402C20.7949 21.8056 21.2549 22.2656 21.8203 22.2656H30.5647C31.2726 22.2708 31.786 21.5142 31.5159 20.8573L29.2211 15.1562ZM22.0254 21.0351V15.7441H28.1313L30.2611 21.0351H22.0254ZM31.2539 32.3554C30.2362 32.3554 29.4082 33.1834 29.4082 34.2011C29.4082 35.2189 30.2362 36.0468 31.2539 36.0468C32.2716 36.0468 33.0996 35.2189 33.0996 34.2011C33.0996 33.1834 32.2716 32.3554 31.2539 32.3554ZM31.2539 34.8164C30.9146 34.8164 30.6387 34.5404 30.6387 34.2011C30.6387 33.8619 30.9146 33.5859 31.2539 33.5859C31.5932 33.5859 31.8691 33.8619 31.8691 34.2011C31.8691 34.5404 31.5932 34.8164 31.2539 34.8164ZM10.5205 14.5136H9.04395C8.4333 14.5136 7.93652 15.0104 7.93652 15.6211V18.082H5.47559C4.86495 18.082 4.36816 18.5788 4.36816 19.1894V20.666C4.36816 21.2766 4.86495 21.7734 5.47559 21.7734H7.93652V24.2343C7.93652 24.845 8.4333 25.3418 9.04395 25.3418H10.5205C11.1311 25.3418 11.6279 24.845 11.6279 24.2343V21.7734H14.0889C14.6995 21.7734 15.1963 21.2766 15.1963 20.666V19.1894C15.1963 18.5788 14.6995 18.082 14.0889 18.082H11.6279V15.6211C11.6279 15.0104 11.1311 14.5136 10.5205 14.5136ZM13.9658 19.3125V20.5429H11.2588C10.7838 20.5429 10.3975 20.9293 10.3975 21.4043V24.1113H9.16699V21.4043C9.16699 20.9293 8.78063 20.5429 8.30566 20.5429H5.59863V19.3125H8.30566C8.78063 19.3125 9.16699 18.9261 9.16699 18.4511V15.7441H10.3975V18.4511C10.3975 18.9261 10.7838 19.3125 11.2588 19.3125H13.9658ZM9.78223 32.3554C8.76455 32.3554 7.93652 33.1834 7.93652 34.2011C7.93652 35.2189 8.76455 36.0468 9.78223 36.0468C10.7999 36.0468 11.6279 35.2189 11.6279 34.2011C11.6279 33.1834 10.7999 32.3554 9.78223 32.3554ZM9.78223 34.8164C9.44295 34.8164 9.16699 34.5404 9.16699 34.2011C9.16699 33.8619 9.44295 33.5859 9.78223 33.5859C10.1215 33.5859 10.3975 33.8619 10.3975 34.2011C10.3975 34.5404 10.1215 34.8164 9.78223 34.8164Z" fill="#67D7C1"/>
</g>
<defs>
<clipPath id="clip0_3_97">
<rect width="42" height="42" fill="white"/>
</clipPath>
</defs>
</svg>
