<svg width="34" height="34" viewBox="0 0 34 34" fill="none" xmlns="http://www.w3.org/2000/svg">
<g clip-path="url(#clip0_3_100)">
<path d="M2.77271 4.17665C1.02965 6.26699 0.618891 9.18623 1.70642 11.68L1.56532 11.8211C1.17634 12.2101 1.17634 12.8407 1.56532 13.2297C1.75981 13.4242 2.01473 13.5215 2.26958 13.5215C2.52443 13.5215 3.62047 12.5832 3.62047 12.5832C3.62066 12.583 12.0933 4.11032 12.0935 4.11012L12.7401 3.46349C13.1291 3.07451 13.1291 2.44389 12.7401 2.05491C12.3512 1.66592 11.7205 1.66592 11.3315 2.05491L11.1904 2.19601C8.91384 1.20323 6.28292 1.45968 4.25135 2.83812L1.70496 0.291799C1.31605 -0.0971848 0.68536 -0.0971848 0.296376 0.291799C-0.0926072 0.680782 -0.0926072 1.3114 0.296376 1.70039L2.77271 4.17665Z" fill="#67D7C1"/>
<path d="M22.5114 28.0903C23.0615 28.0903 23.5074 27.6443 23.5074 27.0942V25.1022H10.4926V27.0942C10.4926 27.6443 10.9386 28.0903 11.4886 28.0903H22.5114Z" fill="#67D7C1"/>
<path d="M33.0029 19.126H28.0891C27.5413 19.126 27.0931 19.5742 27.0931 20.122C27.0931 19.5735 26.6457 19.126 26.0971 19.126H9.76217C9.21363 19.126 8.76621 19.5734 8.76614 20.1219C8.76614 19.5742 8.31793 19.126 7.77011 19.126H0.997099C0.449282 19.126 0.00106812 19.5742 0.00106812 20.122V22.1141C0.00106812 22.6642 0.447024 23.1102 0.997099 23.1102H33.0029C33.553 23.1102 33.9989 22.6642 33.9989 22.1141V20.122C33.9989 19.5742 33.5507 19.126 33.0029 19.126Z" fill="#67D7C1"/>
<path d="M25.1338 32.0079H20.6521V30.0823H13.3479V32.0079H8.40051C7.85044 32.0079 7.40448 32.4539 7.40448 33.004C7.40448 33.554 7.85044 34 8.40051 34H25.1338C25.6838 34 26.1298 33.554 26.1298 33.004C26.1298 32.4539 25.6839 32.0079 25.1338 32.0079Z" fill="#67D7C1"/>
</g>
<defs>
<clipPath id="clip0_3_100">
<rect width="34" height="34" fill="white"/>
</clipPath>
</defs>
</svg>
