<svg width="40" height="40" viewBox="0 0 40 40" fill="none" xmlns="http://www.w3.org/2000/svg">
<path d="M13.6287 14.8378C13.5557 14.8378 13.4836 14.8231 13.4165 14.7945C13.3494 14.7659 13.2888 14.724 13.2384 14.6713C12.6978 14.1081 10.9324 12.0946 10.8514 9.83405C10.8465 9.6988 10.8926 9.56668 10.9805 9.46377C11.0453 9.38573 11.0852 9.2901 11.0951 9.18918C11.0914 9.16053 11.0411 9.12269 11.0227 9.10756C10.95 9.05496 10.8914 8.98506 10.8525 8.90418C10.8135 8.82331 10.7953 8.734 10.7995 8.64432C10.8195 8.23778 10.9886 7.85289 11.2746 7.56323C11.2199 7.48054 11.159 7.40212 11.0924 7.32864C11.0114 7.24204 10.9611 7.13121 10.9493 7.01322C10.9375 6.89522 10.9648 6.77661 11.027 6.67567L11.2065 6.38702C11.2708 5.89296 11.5714 4.22486 12.7741 3.41026C13.0897 3.20327 13.4439 3.06198 13.8154 2.99484C14.1868 2.92769 14.568 2.93606 14.9362 3.01945C15.2253 2.33872 15.7058 1.75659 16.3195 1.34378C17.4432 0.590803 18.9557 0.397289 20.8184 0.767559C25.5714 1.71837 26.6951 3.44756 27.2973 4.57621C27.7116 4.74669 28.0539 5.05559 28.2659 5.45026C28.4153 5.76164 28.4562 6.11403 28.3822 6.45134C28.7575 6.8334 29.0166 7.31423 29.1292 7.83783C29.3205 8.67783 29.2135 12.5524 26.7054 14.5578C26.6206 14.6255 26.5174 14.666 26.4093 14.6743C26.3011 14.6825 26.193 14.658 26.099 14.6039C26.0049 14.5499 25.9293 14.4688 25.882 14.3712C25.8347 14.2736 25.8178 14.1641 25.8335 14.0567C25.8649 13.8441 25.8905 13.6348 25.9103 13.4286C25.9495 13.0065 25.9009 12.5809 25.7676 12.1784C25.6343 11.776 25.4191 11.4055 25.1357 11.0903C24.8522 10.775 24.5066 10.5219 24.1205 10.3467C23.7345 10.1715 23.3163 10.0781 22.8924 10.0724C21.45 10.0309 20.0387 9.64343 18.7773 8.94269L18.6481 8.87459C18.1825 8.63137 17.6617 8.51317 17.1367 8.53156C16.6117 8.54994 16.1005 8.70427 15.653 8.97945C15.1979 9.25358 14.822 9.64122 14.5618 10.1044C14.3017 10.5676 14.1664 11.0904 14.1692 11.6216V14.2973C14.1692 14.4052 14.1368 14.5107 14.0763 14.6001C14.0158 14.6895 13.9299 14.7588 13.8297 14.7989C13.7659 14.8248 13.6976 14.838 13.6287 14.8378ZM11.9422 9.96864C12.0831 10.9867 12.4771 11.9531 13.0881 12.7795V11.6216C13.0871 10.9089 13.2693 10.2079 13.6173 9.58598C13.9653 8.96403 14.4674 8.44201 15.0753 8.07008C15.6833 7.69815 16.3766 7.4888 17.0888 7.46213C17.801 7.43547 18.5081 7.59239 19.1422 7.91783L19.2849 7.99296C20.3946 8.61177 21.6365 8.95543 22.9065 8.99513C23.9155 9.00892 24.885 9.3896 25.6339 10.066C26.3827 10.7425 26.8597 11.6684 26.9757 12.6708C27.8201 11.2894 28.203 9.67512 28.0692 8.06161C27.9673 7.66409 27.7442 7.30816 27.4308 7.04323C27.3409 6.97017 27.2767 6.87031 27.2476 6.7582C27.2184 6.64609 27.2258 6.5276 27.2687 6.41999C27.3103 6.34555 27.3343 6.26256 27.3389 6.17739C27.3435 6.09222 27.3285 6.00712 27.2951 5.92864C27.1688 5.73942 26.9815 5.59921 26.7643 5.53134C26.694 5.51094 26.6286 5.47646 26.572 5.43C26.5154 5.38354 26.4688 5.32607 26.4351 5.26107C25.9081 4.25242 25.1141 2.73188 20.6087 1.8308C19.0411 1.51945 17.8011 1.65729 16.9287 2.24378C16.3899 2.6029 15.9984 3.14401 15.8259 3.7681C15.8113 3.84254 15.7812 3.91306 15.7375 3.97508C15.6938 4.0371 15.6375 4.08923 15.5724 4.12808C15.5072 4.16693 15.4346 4.19163 15.3593 4.20058C15.284 4.20952 15.2076 4.20251 15.1351 4.17999C14.8542 4.06374 14.5501 4.01436 14.2468 4.03575C13.9436 4.05714 13.6494 4.14871 13.3876 4.30323C12.4227 4.95188 12.2724 6.59729 12.2708 6.61405C12.2636 6.69936 12.2364 6.78177 12.1914 6.85459L12.1497 6.92161C12.3545 7.17941 12.4501 7.50713 12.4162 7.83459C12.3923 7.95259 12.3406 8.06319 12.2654 8.1572C12.1902 8.25121 12.0937 8.32592 11.9838 8.37513C11.9569 8.40641 11.9375 8.44338 11.927 8.48323C12.0608 8.64853 12.1451 8.84828 12.1703 9.05945C12.1969 9.37941 12.1167 9.69917 11.9422 9.96864ZM11.5135 7.4054L11.4978 7.41351L11.5135 7.4054Z" fill="#67D7C1"/>
<path d="M20.0141 23.6287C17.8724 23.5708 16.4308 22.0476 15.0368 20.5746C14.8876 20.4168 14.7384 20.2589 14.5886 20.1038C13.5845 19.0284 13.0456 17.5999 13.0892 16.1292V14.1373C13.0892 13.9939 13.1461 13.8565 13.2475 13.7551C13.3489 13.6537 13.4864 13.5968 13.6297 13.5968C13.7731 13.5968 13.9106 13.6537 14.0119 13.7551C14.1133 13.8565 14.1703 13.9939 14.1703 14.1373V16.1681C14.1444 17.3438 14.5733 18.4841 15.3676 19.3514C15.5195 19.5092 15.6708 19.6692 15.8222 19.8292C17.1195 21.2027 18.3497 22.5 20.0141 22.546C21.6487 22.5 22.8789 21.2027 24.1762 19.8287C24.3276 19.6692 24.4789 19.5092 24.6303 19.3514C25.4183 18.4937 25.8477 17.3667 25.8303 16.2022V14.1351C25.8303 13.9918 25.8872 13.8543 25.9886 13.7529C26.09 13.6516 26.2275 13.5946 26.3708 13.5946C26.5142 13.5946 26.6517 13.6516 26.753 13.7529C26.8544 13.8543 26.9114 13.9918 26.9114 14.1351V16.166C26.9457 17.6238 26.4067 19.0369 25.4103 20.1016C25.2605 20.2568 25.1119 20.4146 24.9627 20.5719C23.5676 22.0476 22.1265 23.5708 20.0141 23.6287Z" fill="#67D7C1"/>
<path d="M13.3876 16.8919C12.2838 16.8919 11.3876 15.8108 11.3876 14.4832C11.3809 14.1226 11.449 13.7645 11.5876 13.4316C11.7263 13.0986 11.9324 12.798 12.193 12.5486C12.2999 12.4531 12.4404 12.4039 12.5836 12.412C12.7268 12.42 12.8609 12.4847 12.9565 12.5916C13.052 12.6986 13.1012 12.8391 13.0931 12.9823C13.0851 13.1254 13.0204 13.2596 12.9135 13.3551C12.7658 13.5025 12.6501 13.6788 12.5736 13.8728C12.4971 14.0669 12.4613 14.2747 12.4686 14.4832C12.4686 15.253 12.9767 15.8886 13.4913 15.8021C13.6328 15.7784 13.7778 15.8118 13.8946 15.8951C14.0114 15.9783 14.0903 16.1045 14.114 16.2459C14.1378 16.3874 14.1043 16.5324 14.0211 16.6492C13.9379 16.766 13.8117 16.8449 13.6703 16.8686C13.5768 16.8841 13.4823 16.8919 13.3876 16.8919Z" fill="#67D7C1"/>
<path d="M26.6108 16.8919C26.5164 16.8919 26.4222 16.8839 26.3292 16.8681C26.1889 16.8431 26.0641 16.7637 25.9821 16.6472C25.9 16.5307 25.8673 16.3865 25.891 16.2459C25.9147 16.1054 25.993 15.9799 26.1088 15.8968C26.2246 15.8137 26.3685 15.7797 26.5092 15.8021C27.0211 15.8892 27.5314 15.253 27.5314 14.4832C27.5388 14.2748 27.5031 14.067 27.4267 13.8729C27.3502 13.6788 27.2346 13.5025 27.087 13.3551C27.0341 13.3078 26.991 13.2505 26.9601 13.1866C26.9293 13.1226 26.9114 13.0532 26.9074 12.9823C26.8994 12.8391 26.9485 12.6986 27.0441 12.5916C27.1396 12.4847 27.2737 12.42 27.4169 12.412C27.5601 12.4039 27.7006 12.4531 27.8076 12.5486C28.068 12.7981 28.2739 13.0987 28.4125 13.4317C28.551 13.7646 28.6191 14.1227 28.6124 14.4832C28.6124 15.8113 27.7146 16.8919 26.6108 16.8919Z" fill="#67D7C1"/>
<path d="M17.6708 29.1622C17.6551 29.1622 17.6389 29.1622 17.6227 29.1622C17.5407 29.1548 17.4614 29.1288 17.3909 29.0861C17.3205 29.0433 17.2607 28.9851 17.2162 28.9157L14.7632 25.0919C14.7043 25.0001 14.6745 24.8925 14.6779 24.7833C14.6813 24.6742 14.7176 24.5687 14.7822 24.4806L15.7011 23.2309C15.7833 23.1187 15.9055 23.0425 16.0424 23.0181C16.1793 22.9938 16.3204 23.0231 16.4362 23.1001L20.3006 25.6714C20.3651 25.715 20.4195 25.7721 20.46 25.8387C20.5004 25.9054 20.526 25.9799 20.5349 26.0574C20.5439 26.1348 20.536 26.2132 20.5117 26.2873C20.4875 26.3614 20.4476 26.4294 20.3946 26.4865L18.0665 28.9892C18.016 29.0437 17.9548 29.0872 17.8867 29.117C17.8186 29.1467 17.7451 29.1621 17.6708 29.1622ZM15.8735 24.8184L17.7497 27.7433L19.1703 26.2163L16.2654 24.2838L15.8735 24.8184Z" fill="#67D7C1"/>
<path d="M22.327 29.1622C22.2528 29.1622 22.1793 29.1468 22.1112 29.1172C22.0432 29.0875 21.9819 29.0441 21.9314 28.9897L19.6038 26.4865C19.5504 26.4292 19.5102 26.3609 19.4858 26.2865C19.4614 26.2121 19.4535 26.1333 19.4626 26.0555C19.4717 25.9777 19.4976 25.9028 19.5385 25.836C19.5794 25.7692 19.6343 25.7121 19.6995 25.6687L23.5638 23.0973C23.6796 23.0204 23.8207 22.991 23.9576 23.0154C24.0945 23.0397 24.2167 23.1159 24.2989 23.2281L25.2179 24.4778C25.2825 24.5659 25.3189 24.6714 25.3224 24.7805C25.3258 24.8896 25.2962 24.9973 25.2373 25.0892L22.7822 28.9135C22.7377 28.9829 22.6779 29.0411 22.6075 29.0839C22.537 29.1266 22.4577 29.1526 22.3757 29.16C22.3595 29.1611 22.3433 29.1622 22.327 29.1622ZM20.8281 26.2162L22.2487 27.7427L24.1249 24.8178L23.733 24.2838L20.8281 26.2162Z" fill="#67D7C1"/>
<path d="M33.1773 39.6487H6.28216C5.75173 39.6487 5.24302 39.438 4.86795 39.0629C4.49288 38.6878 4.28216 38.1791 4.28216 37.6487V32.8254C4.27679 31.305 4.76122 29.8233 5.66372 28.5997C6.56622 27.3761 7.83879 26.4758 9.29297 26.0319L15.1622 24.3152C15.2998 24.2749 15.4478 24.291 15.5735 24.3599C15.6993 24.4288 15.7925 24.5448 15.8327 24.6825C15.8729 24.8201 15.8568 24.968 15.7879 25.0938C15.719 25.2195 15.603 25.3128 15.4654 25.353L9.60541 27.067C8.37399 27.4445 7.29671 28.2082 6.53285 29.2452C5.76899 30.2822 5.3591 31.5375 5.36379 32.8254V37.6487C5.36379 37.8924 5.4606 38.1261 5.63293 38.2984C5.80526 38.4708 6.03899 38.5676 6.2827 38.5676H33.1773C33.421 38.5676 33.6547 38.4708 33.8271 38.2984C33.9994 38.1261 34.0962 37.8924 34.0962 37.6487V32.2849C34.1008 30.9955 33.69 29.739 32.9245 28.7014C32.1591 27.6639 31.0798 26.9005 29.8465 26.5243L24.6643 25.3892C24.5243 25.3585 24.4021 25.2735 24.3248 25.1527C24.2474 25.032 24.2212 24.8855 24.2519 24.7454C24.2826 24.6054 24.3676 24.4832 24.4884 24.4059C24.6091 24.3285 24.7556 24.3023 24.8957 24.333L30.1216 25.4773C31.5851 25.9154 32.8679 26.8146 33.7788 28.0409C34.6898 29.2672 35.1801 30.7551 35.1768 32.2827V37.6487C35.1768 38.179 34.9661 38.6876 34.5912 39.0627C34.2162 39.4377 33.7076 39.6485 33.1773 39.6487Z" fill="#67D7C1"/>
<path d="M20 26.6573C19.8934 26.6575 19.7892 26.6261 19.7005 26.567L15.8378 24C15.7519 23.9428 15.6842 23.8622 15.6426 23.7678C15.6011 23.6733 15.5874 23.5689 15.6032 23.467L15.9584 21.1967C15.9686 21.1259 15.9927 21.0578 16.0294 20.9964C16.066 20.935 16.1145 20.8815 16.172 20.839C16.2296 20.7965 16.2949 20.7658 16.3644 20.7487C16.4338 20.7316 16.506 20.7285 16.5767 20.7395C16.6473 20.7505 16.7151 20.7755 16.7761 20.8129C16.837 20.8503 16.89 20.8994 16.9318 20.9574C16.9737 21.0154 17.0036 21.0812 17.0198 21.1508C17.0361 21.2205 17.0383 21.2927 17.0265 21.3632L16.7243 23.2945L20 25.4681L23.2778 23.2897L22.973 21.3589C22.9611 21.2883 22.9634 21.2161 22.9796 21.1465C22.9959 21.0768 23.0258 21.0111 23.0676 20.9531C23.1095 20.8951 23.1624 20.846 23.2234 20.8086C23.2844 20.7712 23.3521 20.7462 23.4228 20.7352C23.4935 20.7242 23.5656 20.7273 23.6351 20.7444C23.7045 20.7615 23.7699 20.7921 23.8274 20.8347C23.8849 20.8772 23.9334 20.9307 23.9701 20.9921C24.0068 21.0535 24.0309 21.1216 24.0411 21.1924L24.3962 23.4627C24.4122 23.5647 24.3986 23.6692 24.357 23.7637C24.3154 23.8583 24.2476 23.9389 24.1616 23.9962L20.2962 26.5643C20.2087 26.6236 20.1057 26.6559 20 26.6573Z" fill="#67D7C1"/>
<path d="M31.2378 34.6053C31.1977 34.606 31.1577 34.6024 31.1184 34.5945L30.2384 34.3951C30.1678 34.3808 30.1007 34.3525 30.0412 34.3119C29.9817 34.2714 29.9309 34.2193 29.8918 34.1588C29.8526 34.0983 29.826 34.0306 29.8134 33.9597C29.8008 33.8888 29.8026 33.8161 29.8185 33.7458C29.8344 33.6755 29.8642 33.6092 29.9062 33.5506C29.9481 33.492 30.0013 33.4424 30.0627 33.4047C30.1241 33.367 30.1924 33.342 30.2636 33.331C30.3348 33.3201 30.4074 33.3235 30.4773 33.341L30.8297 33.4205L31.2157 31.7178C31.2797 31.4595 31.2915 31.1911 31.2504 30.9282C31.2094 30.6653 31.1163 30.4133 30.9766 30.1868C30.837 29.9604 30.6535 29.7641 30.437 29.6094C30.2205 29.4547 29.9753 29.3448 29.7158 29.2861C29.4563 29.2274 29.1877 29.221 28.9257 29.2674C28.6637 29.3138 28.4136 29.412 28.19 29.5562C27.9665 29.7005 27.7739 29.8879 27.6237 30.1075C27.4735 30.3271 27.3686 30.5744 27.3151 30.8351L26.9297 32.5372L27.2822 32.6172C27.422 32.6489 27.5436 32.7347 27.6201 32.856C27.6966 32.9772 27.7219 33.1239 27.6903 33.2637C27.6587 33.4036 27.5728 33.5251 27.4515 33.6017C27.3303 33.6782 27.1836 33.7034 27.0438 33.6718L26.1622 33.4702C26.0927 33.4545 26.0271 33.4253 25.969 33.3841C25.9109 33.343 25.8615 33.2908 25.8236 33.2306C25.7858 33.1703 25.7602 33.1031 25.7483 33.0329C25.7365 32.9628 25.7386 32.8909 25.7546 32.8216L26.2595 30.5913C26.3489 30.1966 26.5153 29.8234 26.749 29.493C26.9827 29.1627 27.2792 28.8815 27.6215 28.6657C27.9639 28.4499 28.3454 28.3036 28.7442 28.2353C29.1431 28.1669 29.5515 28.1778 29.9462 28.2672C30.3409 28.3567 30.7141 28.5231 31.0445 28.7568C31.3749 28.9905 31.656 29.2869 31.8718 29.6293C32.0876 29.9716 32.2339 30.3531 32.3022 30.752C32.3706 31.1509 32.3597 31.5593 32.2703 31.954L31.7654 34.1837C31.7384 34.3034 31.6716 34.4103 31.5758 34.4869C31.48 34.5635 31.361 34.6053 31.2384 34.6053H31.2378Z" fill="#67D7C1"/>
<path d="M9.79405 30.1838C9.67111 30.1836 9.55189 30.1415 9.45608 30.0645C9.36027 29.9874 9.29358 29.88 9.26702 29.76L8.60703 26.7762C8.5917 26.7069 8.59017 26.6352 8.60253 26.5653C8.61489 26.4954 8.6409 26.4286 8.67907 26.3688C8.71724 26.3089 8.76683 26.2571 8.825 26.2165C8.88317 26.1758 8.94879 26.1469 9.01811 26.1316C9.08742 26.1163 9.15908 26.1147 9.22899 26.1271C9.2989 26.1395 9.36568 26.1655 9.42554 26.2036C9.4854 26.2418 9.53715 26.2914 9.57784 26.3496C9.61853 26.4077 9.64737 26.4734 9.6627 26.5427L10.3227 29.5265C10.3536 29.6664 10.3276 29.813 10.2505 29.9338C10.1733 30.0546 10.0513 30.1399 9.91135 30.1708C9.87287 30.1796 9.83352 30.1839 9.79405 30.1838Z" fill="#67D7C1"/>
<path d="M29.8546 29.3406C29.8155 29.3404 29.7766 29.3362 29.7384 29.3281C29.669 29.3129 29.6033 29.2842 29.5451 29.2437C29.4868 29.2031 29.4371 29.1515 29.3988 29.0917C29.3605 29.0319 29.3344 28.9651 29.3219 28.8953C29.3094 28.8254 29.3107 28.7537 29.3259 28.6843L29.9043 26.0411C29.935 25.901 30.0201 25.7789 30.1408 25.7016C30.2615 25.6242 30.408 25.598 30.5481 25.6287C30.6882 25.6594 30.8103 25.7444 30.8876 25.8651C30.965 25.9859 30.9912 26.1324 30.9605 26.2725L30.3822 28.9157C30.3558 29.036 30.2891 29.1437 30.1932 29.221C30.0972 29.2983 29.9778 29.3405 29.8546 29.3406Z" fill="#67D7C1"/>
<path d="M10.574 33.9886C10.075 33.9887 9.58708 33.8408 9.17206 33.5636C8.75705 33.2864 8.43355 32.8924 8.24249 32.4314C8.05143 31.9703 8.00138 31.4629 8.09868 30.9735C8.19598 30.484 8.43625 30.0343 8.78911 29.6814C9.14197 29.3284 9.59157 29.0881 10.081 28.9907C10.5705 28.8933 11.0779 28.9432 11.539 29.1342C12.0001 29.3251 12.3942 29.6485 12.6715 30.0635C12.9488 30.4784 13.0967 30.9663 13.0967 31.4654C13.0962 32.1343 12.8302 32.7757 12.3573 33.2488C11.8843 33.7218 11.243 33.9879 10.574 33.9886ZM10.574 30.0238C10.2888 30.0237 10.0099 30.1082 9.77262 30.2666C9.53538 30.425 9.35045 30.6502 9.24123 30.9138C9.13201 31.1773 9.1034 31.4673 9.15903 31.7471C9.21466 32.0269 9.35202 32.284 9.55374 32.4857C9.75547 32.6874 10.0125 32.8248 10.2923 32.8804C10.5721 32.936 10.8621 32.9074 11.1256 32.7982C11.3892 32.689 11.6144 32.504 11.7728 32.2668C11.9313 32.0296 12.0158 31.7507 12.0157 31.4654C12.0152 31.0832 11.8632 30.7167 11.593 30.4465C11.3227 30.1762 10.9563 30.0242 10.574 30.0238Z" fill="#67D7C1"/>
<path d="M10.5741 32.2821C11.0252 32.2821 11.3908 31.9165 11.3908 31.4654C11.3908 31.0143 11.0252 30.6486 10.5741 30.6486C10.123 30.6486 9.75731 31.0143 9.75731 31.4654C9.75731 31.9165 10.123 32.2821 10.5741 32.2821Z" fill="#67D7C1"/>
<path d="M10.5741 32.5529C10.3589 32.5531 10.1486 32.4894 9.96969 32.3699C9.79077 32.2505 9.65129 32.0807 9.56889 31.8819C9.48649 31.6832 9.46488 31.4645 9.50678 31.2535C9.54868 31.0425 9.65222 30.8487 9.8043 30.6965C9.95637 30.5444 10.1502 30.4408 10.3611 30.3987C10.5721 30.3567 10.7908 30.3782 10.9896 30.4605C11.1883 30.5428 11.3582 30.6822 11.4778 30.8611C11.5973 31.04 11.6611 31.2503 11.6611 31.4654C11.6608 31.7536 11.5462 32.03 11.3424 32.2339C11.1386 32.4378 10.8623 32.5525 10.5741 32.5529ZM10.5741 30.9189C10.4658 30.9188 10.36 30.9508 10.2699 31.0109C10.1799 31.0709 10.1097 31.1564 10.0682 31.2563C10.0268 31.3563 10.0159 31.4663 10.037 31.5725C10.0581 31.6787 10.1102 31.7762 10.1867 31.8527C10.2632 31.9293 10.3608 31.9814 10.4669 32.0025C10.5731 32.0236 10.6831 32.0127 10.7831 31.9712C10.8831 31.9297 10.9685 31.8595 11.0286 31.7695C11.0886 31.6795 11.1207 31.5736 11.1205 31.4654C11.1204 31.3205 11.0628 31.1816 10.9603 31.0791C10.8579 30.9767 10.7189 30.919 10.5741 30.9189Z" fill="#67D7C1"/>
</svg>
